<?xml version="1.0" standalone="no"?>
<!DOCTYPE svg PUBLIC "-//W3C//DTD SVG 20010904//EN"
 "http://www.w3.org/TR/2001/REC-SVG-20010904/DTD/svg10.dtd">
<svg version="1.0" xmlns="http://www.w3.org/2000/svg"
 width="86.000000pt" height="80.000000pt" viewBox="0 0 86.000000 80.000000"
 preserveAspectRatio="xMidYMid meet">

<g transform="translate(0.000000,80.000000) scale(0.100000,-0.100000)"
fill="#000000" stroke="none">
<path d="M425 690 c-12 -5 3 -6 38 -3 54 5 60 4 89 -23 34 -32 95 -157 108
-219 7 -35 8 -37 9 -10 2 66 -76 232 -120 256 -21 11 -96 11 -124 -1z"/>
<path d="M362 663 c-40 -19 -101 -87 -147 -164 -69 -113 -143 -411 -118 -476
5 -14 9 6 10 62 4 219 137 505 265 571 15 8 28 17 28 19 0 7 -1 7 -38 -12z"/>
<path d="M320 451 c0 -22 16 -36 24 -22 8 12 -3 41 -15 41 -5 0 -9 -9 -9 -19z"/>
<path d="M502 448 c-15 -19 2 -48 19 -31 7 7 8 17 2 28 -8 13 -11 14 -21 3z"/>
<path d="M349 377 c-49 -43 -179 -235 -179 -266 0 -8 11 7 25 33 37 70 100
160 144 206 35 37 41 40 66 30 76 -29 121 -99 113 -179 -2 -21 1 -37 6 -34 5
3 6 32 3 65 -6 72 -40 128 -90 151 -45 22 -57 21 -88 -6z"/>
<path d="M672 350 c-1 -30 5 -100 13 -155 8 -55 15 -122 16 -150 2 -48 3 -48
6 -10 4 34 -1 90 -30 340 -2 17 -5 5 -5 -25z"/>
<path d="M385 110 c-135 -46 -194 -57 -207 -38 -8 10 -9 10 -5 -2 6 -24 42
-23 120 0 40 12 96 29 125 36 54 14 119 44 92 42 -8 -1 -64 -18 -125 -38z"/>
<path d="M330 50 c-30 -11 -61 -27 -70 -36 -17 -18 -16 -18 55 16 32 15 74 25
115 28 60 4 68 2 104 -27 53 -42 70 -39 24 4 -35 33 -42 35 -105 35 -42 -1
-89 -8 -123 -20z"/>
</g>
</svg>
